<svg width="41" height="19" viewBox="0 0 41 19" fill="none" xmlns="http://www.w3.org/2000/svg">
<path d="M40.484 1.42541C38.6892 1.13544 36.8806 0.914028 35.0801 0.657775C34.2003 0.53302 33.3228 0.393653 32.443 0.270023C31.5746 0.147516 30.6026 -0.135711 29.7422 0.0767088C29.4622 0.145268 29.4645 0.490311 29.6682 0.63642C30.3545 1.12532 31.3219 1.20175 32.1368 1.36697C33.028 1.54792 33.926 1.69964 34.8206 1.85812C35.8814 2.04581 36.9421 2.23463 38.0029 2.4212C33.2306 3.10342 28.5915 4.43413 24.2631 6.55833C22.9019 7.22594 21.5657 7.96323 20.2842 8.78031C19.9177 8.43752 19.4567 8.18801 18.9582 8.04527C17.9885 7.76879 16.9448 7.84185 15.9626 8.00144C14.837 8.18352 13.7216 8.45663 12.6301 8.78481C7.87266 10.2201 3.21195 12.9613 0.0888673 16.8399C-0.194532 17.1917 0.260729 17.6795 0.602173 17.3468C3.509 14.5179 6.79256 12.206 10.6054 10.7179C11.8163 10.2448 17.3682 8.27118 19.2337 9.48276C18.8797 9.7289 18.5291 9.97841 18.1854 10.2392C16.3815 11.607 14.6947 13.24 13.7023 15.2912C13.3085 16.106 13.0421 17.0063 13.3551 17.8975C13.7148 18.9214 14.8006 19.3125 15.743 18.7258C16.2312 18.4224 16.6603 17.9773 17.0689 17.5783C17.5196 17.1378 17.9476 16.6736 18.3493 16.1892C19.1187 15.2608 19.8209 14.2661 20.3855 13.2018C20.8942 12.2431 21.304 11.1136 21.0297 10.0234C21.0251 10.0054 21.0171 9.98965 21.0126 9.97167C22.1234 9.2681 23.2718 8.61959 24.4418 8.02841C28.7395 5.85701 33.4651 4.39592 38.2715 3.88454C36.9785 5.69067 35.5183 7.35744 33.9681 8.98262C33.3444 9.63674 34.2982 10.5752 34.9651 9.96717C37.3211 7.82049 39.3004 5.1939 40.9108 2.46503C41.1225 2.10538 40.9484 1.50296 40.4829 1.42766L40.484 1.42541ZM19.7982 11.1788C19.6001 12.188 18.9753 13.1153 18.4017 13.9537C17.7916 14.8438 17.0939 15.671 16.3257 16.4319C15.9808 16.7736 15.6257 17.1119 15.2479 17.4176C15.1352 17.5086 14.9326 17.6761 14.8108 17.6671C14.7243 17.6604 14.7311 17.6345 14.6833 17.5334C14.3886 16.9197 14.7846 16.1667 15.0771 15.6261C16.0036 13.9099 17.4468 12.5128 19.0026 11.3462C19.278 11.1394 19.5637 10.945 19.8471 10.7483C19.8426 10.8832 19.83 11.0248 19.8005 11.1799L19.7982 11.1788Z" fill="black"/>
</svg>
