<svg width="29" height="29" viewBox="0 0 29 29" fill="none" xmlns="http://www.w3.org/2000/svg">
<path d="M14.5 7.86521C13.6287 7.86275 12.7654 8.03259 11.96 8.36497C11.1545 8.69734 10.4227 9.18569 9.80667 9.80192C9.19063 10.4182 8.70251 11.1501 8.37039 11.9557C8.03827 12.7612 7.86869 13.6245 7.87143 14.4959C7.86897 15.3669 8.03875 16.2299 8.37103 17.0351C8.70329 17.8403 9.19149 18.5719 9.80753 19.1877C10.4236 19.8036 11.1553 20.2915 11.9606 20.6236C12.7659 20.9556 13.6289 21.1251 14.5 21.1224C15.3709 21.1248 16.2337 20.9551 17.0388 20.623C17.8438 20.2908 18.5753 19.8028 19.1911 19.187C19.8069 18.5712 20.295 17.8397 20.6271 17.0346C20.9592 16.2295 21.129 15.3668 21.1265 14.4959C21.1295 13.6246 20.9602 12.7614 20.6283 11.9558C20.2964 11.1503 19.8085 10.4183 19.1926 9.80204C18.5767 9.18579 17.8451 8.69741 17.0397 8.36501C16.2344 8.03261 15.3712 7.86275 14.5 7.86521ZM14.5 18.7402C13.3738 18.7402 12.2937 18.2928 11.4973 17.4965C10.701 16.7001 10.2536 15.62 10.2536 14.4938C10.2536 13.3676 10.701 12.2875 11.4973 11.4911C12.2937 10.6947 13.3738 10.2474 14.5 10.2474C15.6262 10.2474 16.7063 10.6947 17.5027 11.4911C18.299 12.2875 18.7464 13.3676 18.7464 14.4938C18.7464 15.62 18.299 16.7001 17.5027 17.4965C16.7063 18.2928 15.6262 18.7402 14.5 18.7402ZM24.8571 4.14286C24.2109 3.49657 23.0281 3.62914 22.2202 4.437C21.4124 5.24693 21.2819 6.4235 21.9281 7.07186C22.5744 7.72021 23.7551 7.58971 24.5651 6.77979C25.3729 5.97193 25.5034 4.78914 24.8571 4.14286ZM4.437 22.2244C3.62707 23.0322 3.49657 24.2109 4.14286 24.8571C4.78914 25.5034 5.96986 25.375 6.77979 24.5651C7.58971 23.7551 7.72021 22.5744 7.07393 21.9281C6.42764 21.2819 5.24486 21.4144 4.437 22.2244ZM4.14286 4.14286C3.49657 4.78914 3.62707 5.97193 4.43493 6.77979C5.24486 7.58971 6.42557 7.71814 7.07186 7.07186C7.71814 6.42557 7.58764 5.24278 6.77771 4.43493C5.97193 3.62914 4.78914 3.49657 4.14286 4.14286ZM22.2202 24.5609C23.0281 25.3709 24.2088 25.5034 24.8571 24.8571C25.5055 24.2109 25.3729 23.0281 24.563 22.2181C23.7531 21.4082 22.5744 21.2798 21.9261 21.9261C21.2777 22.5724 21.4124 23.7531 22.2202 24.5609ZM14.5 4.13871C15.4135 4.13871 16.1571 3.21279 16.1571 2.06729C16.1551 0.921786 15.4135 0 14.5 0C13.5844 0 12.8408 0.921786 12.8408 2.06729C12.8408 3.21279 13.5824 4.13871 14.5 4.13871ZM14.5 29C15.4135 29 16.1571 28.0741 16.1571 26.9286C16.1571 25.7831 15.4156 24.8613 14.5021 24.8613C13.5865 24.8613 12.8429 25.7831 12.8429 26.9286C12.8408 28.0741 13.5824 29 14.5 29ZM4.14286 14.5C4.14286 13.5865 3.21071 12.8429 2.06521 12.8429C0.919714 12.8429 0 13.5865 0 14.5C0 15.4156 0.919714 16.1571 2.06521 16.1571C3.21071 16.1571 4.14286 15.4156 4.14286 14.5ZM29 14.5C29 13.5865 28.072 12.8429 26.9265 12.8429C25.781 12.8429 24.8571 13.5865 24.8571 14.5C24.8571 15.4156 25.781 16.1571 26.9265 16.1571C28.072 16.1571 29 15.4156 29 14.5Z" fill="black"/>
</svg>
